<svg xmlns="http://www.w3.org/2000/svg" width="1152" height="1024">
  <path d="M38.375 128.05a76.8 76.8 0 0 1 76.8-76.8h921.599a76.786 76.786 0 0 1 54.304 22.494c14.406 14.403 22.496 33.937 22.496 54.306s-8.09 39.903-22.496 54.306a76.786 76.786 0 0 1-54.304 22.494H115.175a76.803 76.803 0 0 1-76.8-76.8zM38.375 512.05a76.8 76.8 0 0 1 76.8-76.8h921.599a76.79 76.79 0 0 1 54.304 22.494c14.406 14.403 22.496 33.937 22.496 54.306s-8.09 39.903-22.496 54.306a76.786 76.786 0 0 1-54.304 22.494H115.175a76.803 76.803 0 0 1-76.8-76.8zM38.375 896.051a76.786 76.786 0 0 1 22.494-54.304 76.787 76.787 0 0 1 54.306-22.496h921.599a76.775 76.775 0 0 1 54.304 22.496 76.775 76.775 0 0 1 22.496 54.304 76.786 76.786 0 0 1-22.496 54.304 76.775 76.775 0 0 1-54.304 22.496H115.175a76.788 76.788 0 0 1-54.306-22.496 76.796 76.796 0 0 1-22.494-54.304z"/>
</svg>
